<svg viewBox="0 0 41 42" fill="current" xmlns="http://www.w3.org/2000/svg">
<path d="M22.1025 0.545568C21.6966 0.198461 21.1426 0.00206158 20.5636 1.61351e-05C19.9847 -0.00202917 19.4287 0.190449 19.0194 0.534676L4.29924 12.9532C3.45139 13.6661 3.45139 14.822 4.29924 15.5349C5.14709 16.2478 6.52172 16.2478 7.36957 15.5349L20.4769 4.2L33.4226 15.524C34.2632 16.2429 35.6378 16.2526 36.4928 15.5457C37.3477 14.8388 37.3593 13.683 36.5186 12.9641L30.6546 7.85829V1.3784H27.0361V4.76423L22.1025 0.545568Z" fill="current"/>
<path d="M22.0291 10.0413C21.6232 9.69419 21.0692 9.49779 20.4902 9.49575C19.9113 9.4937 19.3553 9.68618 18.9459 10.0304L2.46381 23.9098C1.61596 24.6227 1.61596 25.7786 2.46381 26.4915C3.31166 27.2044 4.68629 27.2044 5.53414 26.4915L20.4682 13.9138L35.1112 26.4806C35.9518 27.1995 37.3264 27.2092 38.1814 26.5023C39.0363 25.7954 39.0479 24.6396 38.2072 23.9207L30.5811 17.354L26.9627 14.26L22.0291 10.0413Z" fill="current"/>
<path d="M21.9632 19.5368C21.5573 19.1897 21.0033 18.9933 20.4243 18.9913C19.8454 18.9892 19.2894 19.1817 18.88 19.5259L0.635887 34.8662C-0.211962 35.5791 -0.211962 36.735 0.635886 37.4479C1.48374 38.1608 2.85837 38.1608 3.70622 37.4479L20.4769 23.52L36.8072 37.437C37.6479 38.1559 39.0225 38.1656 39.8775 37.4587C40.7324 36.7518 40.744 35.596 39.9033 34.8771L30.5152 26.8496L26.8968 23.7555L21.9632 19.5368Z" fill="current"/>
<path d="M18.3659 30.66C18.3659 29.5002 19.3109 28.56 20.4767 28.56C21.6424 28.56 22.5874 29.5002 22.5874 30.66V39.9C22.5874 41.0598 21.6424 42 20.4767 42C19.3109 42 18.3659 41.0598 18.3659 39.9V30.66Z" fill="current"/>
</svg>
